PathFileType	4	(X/Y/Z)	Walk1_0-155.trc
DataRate	CameraRate	NumFrames	NumMarkers	Units	OrigDataRate	OrigDataStartFrame	OrigNumFrames
30	30	9	22	m	30	116	155
Frame#	Time	Hip			RHip			RKnee			RAnkle			RBigToe			RSmallToe			RHeel			LHip			LKnee			LAnkle			LBigToe			LSmallToe			LHeel			Neck			Head			Nose			RShoulder			RElbow			RWrist			LShoulder			LElbow			LWrist		
		X1	Y1	Z1	X2	Y2	Z2	X3	Y3	Z3	X4	Y4	Z4	X5	Y5	Z5	X6	Y6	Z6	X7	Y7	Z7	X8	Y8	Z8	X9	Y9	Z9	X10	Y10	Z10	X11	Y11	Z11	X12	Y12	Z12	X13	Y13	Z13	X14	Y14	Z14	X15	Y15	Z15	X16	Y16	Z16	X17	Y17	Z17	X18	Y18	Z18	X19	Y19	Z19	X20	Y20	Z20	X21	Y21	Z21	X22	Y22	Z22
117	3.9	0.984533684120071	0.9052867651220403	0.42265108499604115	0.9649698548021053	0.8850913605361289	0.5178153475253043	0.9040705450916316	0.520248721843911	0.4790759192294506	0.8446835301154285	0.11560254924081259	0.44229986190312065	1.0438579212045846	0.04129055896910572	0.4560770689342786	1.0068313400919733	0.0323139245881195	0.5010375785200483	0.7923427367544523	0.0384696533725724	0.4203883898047264	0.9969422056975132	0.8889505870271389	0.3037618563622715	1.1746336190373727	0.5655813022155958	0.2971352014804282	1.01564517726621	0.22496756052724823	0.31613238138693517	1.1919470187064727	0.08767142075025865	0.31684475265532946	1.141318274689858	0.10346278368337516	0.25942715271406247	0.9688554306015661	0.1694127719116949	0.33033845532586203	0.9219198451146253	1.5913419255770256	0.4090587176587732	0.9865281360420662	1.8482687358643635	0.42480268582361946	1.0766676219342133	1.6818021871425797	0.39948716468104495	0.8762725362727299	1.4675723071413085	0.5726511692100001	0.9902455586351215	1.181572228996365	0.6519923835147359	1.2350671941995546	0.9597065767347698	0.6490870530434247	0.8841755821833983	1.4761738562922704	0.21267406716001513	0.8843534362903451	1.1586228070537343	0.15176767651744438	0.8918277912442862	0.9093307891887169	0.13043301310970892
118	3.933333333333333	1.0217808206610854	0.9029577038058999	0.42321463093389233	0.9988981889733053	0.8836629824848656	0.5171514890452967	0.9190237498861095	0.519538493191227	0.478407864106103	0.8485828011792819	0.1176997563484462	0.4434536564125877	1.044031041008322	0.03935280175484525	0.4565476463203255	1.0031185798117626	0.03570278257941613	0.5048067368942933	0.7981467606846637	0.03929463617309659	0.42028602450236435	1.037449437250953	0.8862739118495471	0.3038273834997682	1.2242601495168652	0.5621799582759857	0.30379943861070685	1.135963347519623	0.19539611864582965	0.31850522639799655	1.3411023536159128	0.08801565085572083	0.31668656762929526	1.2916255240444565	0.09963869801834487	0.26090705529822467	1.100047392570607	0.128520736145547	0.3331033957247511	0.9561612139033699	1.5908040460890402	0.40107922784957256	1.0327697264456668	1.8475617331781178	0.4252145023437413	1.1233682530118474	1.6760696848222618	0.39893673015951653	0.9199452987986724	1.4679372481926156	0.5720535318436554	1.0448180533698985	1.1858188128809735	0.6567329088420709	1.2953324565523203	0.9764231468769528	0.6466807912944434	0.9159277413452811	1.4728519855035491	0.20644689756284654	0.9114717220492443	1.1566185495332173	0.15069390997799714	0.9161674847525602	0.9071990974852246	0.12569980542210024
119	3.966666666666667	1.0615642923567004	0.8978861528425939	0.4234714162004153	1.036250002132942	0.8787947565610671	0.5160916318211243	0.937511760260778	0.5170632994215405	0.4775279167875076	0.8530373701358863	0.11934535574914716	0.4450038761683951	1.0458529979879936	0.03559313469054192	0.45673751063408885	0.9979710299627005	0.036210176428605544	0.5077833650681648	0.8021570136861604	0.0405848071819692	0.42127171710927436	1.0797000268869121	0.8797896174931457	0.30513617004942384	1.2648103140246367	0.5521484746615997	0.3073283743820454	1.2516836077435767	0.17145574679349612	0.3188900375189708	1.471517781110439	0.09114800545279496	0.3132071893733523	1.426639000182519	0.09719178730967426	0.2600449411108663	1.225607845351273	0.09674305637250276	0.33290402601397656	0.9934191587079882	1.5874082251068309	0.3946102804190519	1.0794923502655116	1.8438338712875995	0.42625012760324166	1.1759599144922852	1.668598217116603	0.39613151940014457	0.9644211995690403	1.4652849963519663	0.5704161415891624	1.0973524787605178	1.1858293224866296	0.6601860398872577	1.3466878687408135	0.9903216496422869	0.6436628044700863	0.9514036097469635	1.4673064036956422	0.2011949911999778	0.9397518810055346	1.1527530041055132	0.14973084666887757	0.9473946802792756	0.9016957121218004	0.12099108013130865
120	4.0	1.1040857184837254	0.8908409808559512	0.423270322404951	1.0770110002114788	0.8716344190870264	0.5147489950783348	0.9607878796369227	0.5130481798095101	0.47673982878717747	0.8577537301835562	0.12163868494936297	0.44665615900962435	1.048566684676879	0.03059702915935697	0.4571048379944635	0.9921133612022723	0.033866701723494465	0.5089700037334021	0.803682895918869	0.04363834536229583	0.4230241910474738	1.1236424741848385	0.8708189853177846	0.3071146453355792	1.2997769327016109	0.5379696008646802	0.30769574214735446	1.3562704635230955	0.15391524696905318	0.31816667156500694	1.5792261317326677	0.09630289633499713	0.30853658473372336	1.5404341388708747	0.09546263126704418	0.25743225162861527	1.3380391340194364	0.07455460466455996	0.33090780714583595	1.0336576144043363	1.5814631723556816	0.3896275519853452	1.1258272075060298	1.8374944548283436	0.42701090533396563	1.230008941298454	1.660358372516415	0.3921279824516256	1.0096508501111385	1.4599688313282448	0.567828226120656	1.147884238687414	1.1818995230015898	0.6615517367777344	1.3962372744450917	1.000278046976967	0.6397155749821716	0.9908158270323422	1.4602075707547464	0.1969773147099763	0.9692128700019085	1.1470521458039231	0.14870088669415782	0.9847860045157928	0.8933192318362145	0.11680855242266619
121	4.033333333333333	1.1495461711181207	0.8827649551579951	0.422523380617731	1.1214159464965088	0.8634914867965092	0.5133178403374833	0.9904420802350097	0.5078357324765325	0.4762923527349274	0.8626505125465476	0.12621462741815312	0.44788596520361007	1.0506341889605517	0.024690688834847832	0.4575312851017285	0.986714175848135	0.0300147748271531	0.5081799492863792	0.8037025163644398	0.05036336585330828	0.4251595687039922	1.169543424808081	0.860964764075771	0.3089414695316767	1.3351594488040637	0.5231040137327267	0.307031230345419	1.444200924112117	0.14101696700947222	0.31758231229923684	1.6634595307547586	0.09987214901429103	0.30505582971116996	1.63101496395257	0.09189117536841135	0.25526887684355953	1.4303995589088354	0.05943673830892225	0.32883581292588937	1.076001767224922	1.5737471785180182	0.3853918145939795	1.1712660143788467	1.829341143693355	0.42688120096972415	1.2820372364272186	1.65263945893522	0.3875864871947946	1.0552652858272233	1.4526669700857024	0.5642657435988252	1.196212535399665	1.1748743458595812	0.6601520636587098	1.4478549880002864	1.0056545066118827	0.6353037480178712	1.033513383969438	1.4522592660936076	0.193535325341622	1.0013605307437277	1.1397700909123893	0.14737243057520924	1.0271539868992303	0.8832620302970544	0.11328795840125014
122	4.066666666666666	1.1980963302954986	0.8746314548454537	0.4211052299405239	1.169863132280004	0.8555445033685064	0.5119196499838465	1.0284395671323339	0.5019386767213967	0.47648520990108484	0.8689133086655816	0.13486870748450236	0.44850250207524245	1.0503150970769117	0.01826990853111544	0.45749185309211166	0.9825241210617648	0.026312700368725496	0.5058641525460215	0.8044744374448152	0.06324140934887768	0.42735024580655395	1.2176996875503512	0.8518125802157145	0.3096419368650368	1.3757117448783296	0.5109492141666713	0.3075035411715043	1.5124214509377134	0.13071476112382502	0.3178536671877571	1.7257791634991841	0.09813553573613776	0.3038848474977191	1.6990582642354835	0.08446062128978729	0.25549825443686053	1.4987614868013939	0.048843572791025525	0.3277380486514205	1.119447364143171	1.5653842332369456	0.3811698520076554	1.2159042868320233	1.8204891513134094	0.4256955935596814	1.3309210916479046	1.6466782727820573	0.3825584926683005	1.1007344497266327	1.4443494867863762	0.559687090659373	1.24197579145427	1.1660096835705007	0.6557663921142093	1.501149904319821	1.0061053757761718	0.6309239757468584	1.078796558196755	1.4442525491131195	0.19082039991553446	1.0385436934705679	1.131506913338331	0.1454744082366871	1.074072869182084	0.8729113771993688	0.11024155545602632
123	4.1	1.2494842806641087	0.8674315011553886	0.4187813622044718	1.222283225070519	0.8488167248697132	0.5103965310291799	1.076664248678423	0.49607288512713454	0.47762875756151846	0.8796569733602255	0.1492078335601965	0.44913384203324214	1.0468146692273668	0.012439195221766232	0.4565374217263094	0.9798369464159356	0.024277827038104	0.5029891909442751	0.8093694313989649	0.08460238388746834	0.4296078544829882	1.2678387676581375	0.8446963595999364	0.30840400688789465	1.4226261876259896	0.5037371451936105	0.3098934194697921	1.5609626361910378	0.12209370291987122	0.3188550466946832	1.7691733286069333	0.08997974247084675	0.30460879765858173	1.746622633036317	0.073569105389052	0.2584423210827156	1.5437256923627878	0.041580681746462546	0.32766533563023503	1.1631062059998383	1.557671715488529	0.37657480244699515	1.2602721671050277	1.8122087391357589	0.42374512279651455	1.3770117618146689	1.6432718785221132	0.37695964196974324	1.1455917987131685	1.436196186311134	0.5542866510819545	1.284914626189254	1.1567920900262005	0.6487711139059565	1.5525074970938368	1.0014710965089844	0.6267032699714552	1.126293229331885	1.4371716780507713	0.18910917458308607	1.0822252035426128	1.1231403183813389	0.14280023654487758	1.1261889947743906	0.8635048717217282	0.10758054771141803
124	4.133333333333334	1.302900789052241	0.862081490497256	0.41531386436552503	1.277870934636353	0.8441170939348046	0.5083300217253297	1.13615161159595	0.4910883677538696	0.4798750590517043	0.8991459475522986	0.17023289673049924	0.4508544177261449	1.0413369536795958	0.00887146652039612	0.4548586559888114	0.9792852188247044	0.025224367221535447	0.5007599247871645	0.8224283797758938	0.1155433753248729	0.43232232210310306	1.319049361389874	0.8404303817878568	0.3049732041730556	1.4733864715675615	0.5017179001892159	0.3134441853792637	1.5924635156316533	0.1150987407797987	0.32003305086667755	1.7974195588905315	0.07737775749433623	0.30620493756995665	1.7773072797470322	0.0613427030198734	0.2631414667046674	1.5697059688450088	0.03712411556903206	0.32823050984962715	1.2062472705330913	1.5518352608403094	0.37162620065492813	1.304588570080983	1.8057630899315786	0.4214148317251711	1.4209410644450409	1.642521404857266	0.37098099256240913	1.1894813271816806	1.4294294738950857	0.5485737296510522	1.325013260594551	1.1486423512313564	0.6399418066330088	1.59714326735877	0.9918881933428574	0.6224892389795741	1.175916434943465	1.4320997610224158	0.18890843285995443	1.1318317858037923	1.1156712277767795	0.13928997256832124	1.1845485031333425	0.8559948810311656	0.10568648898964088
125	4.166666666666667	1.3570790005877214	0.8591798246742974	0.41061010951608673	1.3352608882035812	0.8418696360446996	0.5053395897778281	1.2063946477196215	0.487887013860698	0.4830580523370441	0.9309224128319998	0.19762793783203889	0.4541086649659257	1.037890197496312	0.009034385128667858	0.4536693869293778	0.982988188033549	0.03033680106929212	0.5003510687722562	0.8471292855209221	0.15498708817682358	0.4356285251735353	1.3701022607978632	0.8391198958030321	0.29974403867750754	1.5225987303074615	0.5031544137909366	0.31627014122979624	1.6108673950157193	0.10975643593726232	0.32088730608197774	1.8145459338833694	0.06383760637028486	0.30804160104152617	1.7961773112352386	0.0497685491650744	0.26833515366164296	1.582424634274898	0.03493757608518119	0.3290727610483727	1.248370566326963	1.548751474287213	0.36663776295133066	1.3483065270934473	1.8022710048671842	0.4187994243962821	1.4630789191799751	1.6440180633320418	0.3650421790486726	1.232095114240344	1.4250747995924935	0.5432009285902134	1.3624012768575011	1.1426356327832088	0.6301826969037542	1.6314317054444483	0.9781498576466601	0.6182226046551467	1.2274491343348637	1.429933120583482	0.19067184595757034	1.1850981235044902	1.1101230972568021	0.1350101573007128	1.2492562537728342	0.8511785302591284	0.10575887460192722
